<?xml version="1.0" encoding="UTF-8" ?>
<svg xmlns="http://www.w3.org/2000/svg" version="1.1">
<rect x="0" y="0" width="60" height="60" style="fill: #395539;"/>
<rect x="0" y="60" width="60" height="60" style="fill: #395539;"/>
<rect x="0" y="120" width="60" height="60" style="fill: #395539;"/>
<rect x="0" y="180" width="60" height="60" style="fill: #395539;"/>
<rect x="0" y="240" width="60" height="60" style="fill: #395539;"/>
<rect x="0" y="300" width="60" height="60" style="fill: #723972;"/>
<rect x="0" y="360" width="60" height="60" style="fill: #723972;"/>
<rect x="0" y="420" width="60" height="60" style="fill: #723972;"/>
<rect x="0" y="480" width="60" height="60" style="fill: #723972;"/>
<rect x="0" y="540" width="60" height="60" style="fill: #723972;"/>
<rect x="0" y="600" width="60" height="60" style="fill: #723972;"/>
<rect x="60" y="0" width="60" height="60" style="fill: #395539;"/>
<rect x="60" y="60" width="60" height="60" style="fill: #723939;"/>
<rect x="60" y="120" width="60" height="60" style="fill: #723939;"/>
<rect x="60" y="180" width="60" height="60" style="fill: #393972;"/>
<rect x="60" y="240" width="60" height="60" style="fill: #395539;"/>
<rect x="60" y="300" width="60" height="60" style="fill: #723972;"/>
<rect x="60" y="360" width="60" height="60" style="fill: #6e6e39;"/>
<rect x="60" y="420" width="60" height="60" style="fill: #6e6e39;"/>
<rect x="60" y="480" width="60" height="60" style="fill: #6e6e39;"/>
<rect x="60" y="540" width="60" height="60" style="fill: #6e6e39;"/>
<rect x="60" y="600" width="60" height="60" style="fill: #723972;"/>
<rect x="120" y="0" width="60" height="60" style="fill: #395539;"/>
<rect x="120" y="60" width="60" height="60" style="fill: #723939;"/>
<rect x="120" y="120" width="60" height="60" style="fill: #393972;"/>
<rect x="120" y="180" width="60" height="60" style="fill: #393972;"/>
<rect x="120" y="240" width="60" height="60" style="fill: #395539;"/>
<rect x="120" y="300" width="60" height="60" style="fill: #723972;"/>
<rect x="120" y="360" width="60" height="60" style="fill: #6e6e39;"/>
<rect x="120" y="420" width="60" height="60" style="fill: #397272;"/>
<rect x="120" y="480" width="60" height="60" style="fill: #397272;"/>
<rect x="120" y="540" width="60" height="60" style="fill: #397272;"/>
<rect x="120" y="600" width="60" height="60" style="fill: #723972;"/>
<rect x="180" y="0" width="60" height="60" style="fill: #395539;"/>
<rect x="180" y="60" width="60" height="60" style="fill: #723939;"/>
<rect x="180" y="120" width="60" height="60" style="fill: #393972;"/>
<rect x="180" y="180" width="60" height="60" style="fill: #395539;"/>
<rect x="180" y="240" width="60" height="60" style="fill: #395539;"/>
<rect x="180" y="300" width="60" height="60" style="fill: #723972;"/>
<rect x="180" y="360" width="60" height="60" style="fill: #6e6e39;"/>
<rect x="180" y="420" width="60" height="60" style="fill: #397272;"/>
<rect x="180" y="480" width="60" height="60" style="fill: #725539;"/>
<rect x="180" y="540" width="60" height="60" style="fill: #397272;"/>
<rect x="180" y="600" width="60" height="60" style="fill: #723972;"/>
<rect x="240" y="0" width="60" height="60" style="fill: #723939;"/>
<rect x="240" y="60" width="60" height="60" style="fill: #723939;"/>
<rect x="240" y="120" width="60" height="60" style="fill: #393972;"/>
<rect x="240" y="180" width="60" height="60" style="fill: #395539;"/>
<rect x="240" y="240" width="60" height="60" style="fill: #723972;"/>
<rect x="240" y="300" width="60" height="60" style="fill: #723972;"/>
<rect x="240" y="360" width="60" height="60" style="fill: #6e6e39;"/>
<rect x="240" y="420" width="60" height="60" style="fill: #397272;"/>
<rect x="240" y="480" width="60" height="60" style="fill: #725539;"/>
<rect x="240" y="540" width="60" height="60" style="fill: #725539;"/>
<rect x="240" y="600" width="60" height="60" style="fill: #723972;"/>
<rect x="300" y="0" width="60" height="60" style="fill: #723939;"/>
<rect x="300" y="60" width="60" height="60" style="fill: #393972;"/>
<rect x="300" y="120" width="60" height="60" style="fill: #393972;"/>
<rect x="300" y="180" width="60" height="60" style="fill: #395539;"/>
<rect x="300" y="240" width="60" height="60" style="fill: #395539;"/>
<rect x="300" y="300" width="60" height="60" style="fill: #395539;"/>
<rect x="300" y="360" width="60" height="60" style="fill: #6e6e39;"/>
<rect x="300" y="420" width="60" height="60" style="fill: #397272;"/>
<rect x="300" y="480" width="60" height="60" style="fill: #5f4242;"/>
<rect x="300" y="540" width="60" height="60" style="fill: #725539;"/>
<rect x="300" y="600" width="60" height="60" style="fill: #723972;"/>
<rect x="360" y="0" width="60" height="60" style="fill: #723939;"/>
<rect x="360" y="60" width="60" height="60" style="fill: #393972;"/>
<rect x="360" y="120" width="60" height="60" style="fill: #6e6e39;"/>
<rect x="360" y="180" width="60" height="60" style="fill: #6e6e39;"/>
<rect x="360" y="240" width="60" height="60" style="fill: #6e6e39;"/>
<rect x="360" y="300" width="60" height="60" style="fill: #6e6e39;"/>
<rect x="360" y="360" width="60" height="60" style="fill: #6e6e39;"/>
<rect x="360" y="420" width="60" height="60" style="fill: #397272;"/>
<rect x="360" y="480" width="60" height="60" style="fill: #5f4242;"/>
<rect x="360" y="540" width="60" height="60" style="fill: #725539;"/>
<rect x="360" y="600" width="60" height="60" style="fill: #723972;"/>
<rect x="420" y="0" width="60" height="60" style="fill: #723939;"/>
<rect x="420" y="60" width="60" height="60" style="fill: #393972;"/>
<rect x="420" y="120" width="60" height="60" style="fill: #6e6e39;"/>
<rect x="420" y="180" width="60" height="60" style="fill: #397272;"/>
<rect x="420" y="240" width="60" height="60" style="fill: #397272;"/>
<rect x="420" y="300" width="60" height="60" style="fill: #397272;"/>
<rect x="420" y="360" width="60" height="60" style="fill: #397272;"/>
<rect x="420" y="420" width="60" height="60" style="fill: #397272;"/>
<rect x="420" y="480" width="60" height="60" style="fill: #5f4242;"/>
<rect x="420" y="540" width="60" height="60" style="fill: #725539;"/>
<rect x="420" y="600" width="60" height="60" style="fill: #723972;"/>
<rect x="480" y="0" width="60" height="60" style="fill: #723939;"/>
<rect x="480" y="60" width="60" height="60" style="fill: #393972;"/>
<rect x="480" y="120" width="60" height="60" style="fill: #397272;"/>
<rect x="480" y="180" width="60" height="60" style="fill: #397272;"/>
<rect x="480" y="240" width="60" height="60" style="fill: #5f4242;"/>
<rect x="480" y="300" width="60" height="60" style="fill: #5f4242;"/>
<rect x="480" y="360" width="60" height="60" style="fill: #5f4242;"/>
<rect x="480" y="420" width="60" height="60" style="fill: #5f4242;"/>
<rect x="480" y="480" width="60" height="60" style="fill: #5f4242;"/>
<rect x="480" y="540" width="60" height="60" style="fill: #725539;"/>
<rect x="480" y="600" width="60" height="60" style="fill: #723972;"/>
<rect x="540" y="0" width="60" height="60" style="fill: #397272;"/>
<rect x="540" y="60" width="60" height="60" style="fill: #393972;"/>
<rect x="540" y="120" width="60" height="60" style="fill: #397272;"/>
<rect x="540" y="180" width="60" height="60" style="fill: #5f4242;"/>
<rect x="540" y="240" width="60" height="60" style="fill: #5f4242;"/>
<rect x="540" y="300" width="60" height="60" style="fill: #725539;"/>
<rect x="540" y="360" width="60" height="60" style="fill: #725539;"/>
<rect x="540" y="420" width="60" height="60" style="fill: #725539;"/>
<rect x="540" y="480" width="60" height="60" style="fill: #725539;"/>
<rect x="540" y="540" width="60" height="60" style="fill: #725539;"/>
<rect x="540" y="600" width="60" height="60" style="fill: #723972;"/>
<rect x="600" y="0" width="60" height="60" style="fill: #397272;"/>
<rect x="600" y="60" width="60" height="60" style="fill: #397272;"/>
<rect x="600" y="120" width="60" height="60" style="fill: #397272;"/>
<rect x="600" y="180" width="60" height="60" style="fill: #723972;"/>
<rect x="600" y="240" width="60" height="60" style="fill: #723972;"/>
<rect x="600" y="300" width="60" height="60" style="fill: #723972;"/>
<rect x="600" y="360" width="60" height="60" style="fill: #723972;"/>
<rect x="600" y="420" width="60" height="60" style="fill: #723972;"/>
<rect x="600" y="480" width="60" height="60" style="fill: #723972;"/>
<rect x="600" y="540" width="60" height="60" style="fill: #723972;"/>
<rect x="600" y="600" width="60" height="60" style="fill: #723972;"/>
<line x1="30" y1="30" x2="30" y2="60" stroke="green" stroke-width="20"/>
<line x1="30" y1="30" x2="60" y2="30" stroke="green" stroke-width="20"/>
<circle cx="30" cy="30" r="10" fill="green"/>
<line x1="30" y1="90" x2="30" y2="120" stroke="green" stroke-width="20"/>
<line x1="30" y1="90" x2="30" y2="60" stroke="green" stroke-width="20"/>
<circle cx="30" cy="90" r="10" fill="green"/>
<line x1="30" y1="150" x2="30" y2="180" stroke="green" stroke-width="20"/>
<line x1="30" y1="150" x2="30" y2="120" stroke="green" stroke-width="20"/>
<circle cx="30" cy="150" r="10" fill="green"/>
<line x1="30" y1="210" x2="30" y2="240" stroke="green" stroke-width="20"/>
<line x1="30" y1="210" x2="30" y2="180" stroke="green" stroke-width="20"/>
<circle cx="30" cy="210" r="10" fill="green"/>
<line x1="30" y1="270" x2="60" y2="270" stroke="green" stroke-width="20"/>
<line x1="30" y1="270" x2="30" y2="240" stroke="green" stroke-width="20"/>
<circle cx="30" cy="270" r="10" fill="green"/>
<line x1="30" y1="330" x2="30" y2="360" stroke="magenta" stroke-width="20"/>
<line x1="30" y1="330" x2="60" y2="330" stroke="magenta" stroke-width="20"/>
<circle cx="30" cy="330" r="10" fill="magenta"/>
<line x1="30" y1="390" x2="30" y2="420" stroke="magenta" stroke-width="20"/>
<line x1="30" y1="390" x2="30" y2="360" stroke="magenta" stroke-width="20"/>
<circle cx="30" cy="390" r="10" fill="magenta"/>
<line x1="30" y1="450" x2="30" y2="480" stroke="magenta" stroke-width="20"/>
<line x1="30" y1="450" x2="30" y2="420" stroke="magenta" stroke-width="20"/>
<circle cx="30" cy="450" r="10" fill="magenta"/>
<line x1="30" y1="510" x2="30" y2="540" stroke="magenta" stroke-width="20"/>
<line x1="30" y1="510" x2="30" y2="480" stroke="magenta" stroke-width="20"/>
<circle cx="30" cy="510" r="10" fill="magenta"/>
<line x1="30" y1="570" x2="30" y2="600" stroke="magenta" stroke-width="20"/>
<line x1="30" y1="570" x2="30" y2="540" stroke="magenta" stroke-width="20"/>
<circle cx="30" cy="570" r="10" fill="magenta"/>
<line x1="30" y1="630" x2="60" y2="630" stroke="magenta" stroke-width="20"/>
<line x1="30" y1="630" x2="30" y2="600" stroke="magenta" stroke-width="20"/>
<circle cx="30" cy="630" r="10" fill="magenta"/>
<line x1="90" y1="30" x2="60" y2="30" stroke="green" stroke-width="20"/>
<line x1="90" y1="30" x2="120" y2="30" stroke="green" stroke-width="20"/>
<circle cx="90" cy="30" r="10" fill="green"/>
<line x1="90" y1="90" x2="90" y2="120" stroke="red" stroke-width="20"/>
<line x1="90" y1="90" x2="120" y2="90" stroke="red" stroke-width="20"/>
<circle cx="90" cy="90" r="10" fill="red"/>
<line x1="90" y1="150" x2="90" y2="120" stroke="red" stroke-width="20"/>
<circle cx="90" cy="150" r="20" fill="red"/>
<line x1="90" y1="210" x2="120" y2="210" stroke="blue" stroke-width="20"/>
<circle cx="90" cy="210" r="20" fill="blue"/>
<line x1="90" y1="270" x2="60" y2="270" stroke="green" stroke-width="20"/>
<line x1="90" y1="270" x2="120" y2="270" stroke="green" stroke-width="20"/>
<circle cx="90" cy="270" r="10" fill="green"/>
<line x1="90" y1="330" x2="60" y2="330" stroke="magenta" stroke-width="20"/>
<line x1="90" y1="330" x2="120" y2="330" stroke="magenta" stroke-width="20"/>
<circle cx="90" cy="330" r="10" fill="magenta"/>
<line x1="90" y1="390" x2="90" y2="420" stroke="yellow" stroke-width="20"/>
<line x1="90" y1="390" x2="120" y2="390" stroke="yellow" stroke-width="20"/>
<circle cx="90" cy="390" r="10" fill="yellow"/>
<line x1="90" y1="450" x2="90" y2="480" stroke="yellow" stroke-width="20"/>
<line x1="90" y1="450" x2="90" y2="420" stroke="yellow" stroke-width="20"/>
<circle cx="90" cy="450" r="10" fill="yellow"/>
<line x1="90" y1="510" x2="90" y2="540" stroke="yellow" stroke-width="20"/>
<line x1="90" y1="510" x2="90" y2="480" stroke="yellow" stroke-width="20"/>
<circle cx="90" cy="510" r="10" fill="yellow"/>
<line x1="90" y1="570" x2="90" y2="540" stroke="yellow" stroke-width="20"/>
<circle cx="90" cy="570" r="20" fill="yellow"/>
<line x1="90" y1="630" x2="60" y2="630" stroke="magenta" stroke-width="20"/>
<line x1="90" y1="630" x2="120" y2="630" stroke="magenta" stroke-width="20"/>
<circle cx="90" cy="630" r="10" fill="magenta"/>
<line x1="150" y1="30" x2="120" y2="30" stroke="green" stroke-width="20"/>
<line x1="150" y1="30" x2="180" y2="30" stroke="green" stroke-width="20"/>
<circle cx="150" cy="30" r="10" fill="green"/>
<line x1="150" y1="90" x2="120" y2="90" stroke="red" stroke-width="20"/>
<line x1="150" y1="90" x2="180" y2="90" stroke="red" stroke-width="20"/>
<circle cx="150" cy="90" r="10" fill="red"/>
<line x1="150" y1="150" x2="150" y2="180" stroke="blue" stroke-width="20"/>
<line x1="150" y1="150" x2="180" y2="150" stroke="blue" stroke-width="20"/>
<circle cx="150" cy="150" r="10" fill="blue"/>
<line x1="150" y1="210" x2="120" y2="210" stroke="blue" stroke-width="20"/>
<line x1="150" y1="210" x2="150" y2="180" stroke="blue" stroke-width="20"/>
<circle cx="150" cy="210" r="10" fill="blue"/>
<line x1="150" y1="270" x2="120" y2="270" stroke="green" stroke-width="20"/>
<line x1="150" y1="270" x2="180" y2="270" stroke="green" stroke-width="20"/>
<circle cx="150" cy="270" r="10" fill="green"/>
<line x1="150" y1="330" x2="120" y2="330" stroke="magenta" stroke-width="20"/>
<line x1="150" y1="330" x2="180" y2="330" stroke="magenta" stroke-width="20"/>
<circle cx="150" cy="330" r="10" fill="magenta"/>
<line x1="150" y1="390" x2="120" y2="390" stroke="yellow" stroke-width="20"/>
<line x1="150" y1="390" x2="180" y2="390" stroke="yellow" stroke-width="20"/>
<circle cx="150" cy="390" r="10" fill="yellow"/>
<line x1="150" y1="450" x2="150" y2="480" stroke="cyan" stroke-width="20"/>
<line x1="150" y1="450" x2="180" y2="450" stroke="cyan" stroke-width="20"/>
<circle cx="150" cy="450" r="10" fill="cyan"/>
<line x1="150" y1="510" x2="150" y2="540" stroke="cyan" stroke-width="20"/>
<line x1="150" y1="510" x2="150" y2="480" stroke="cyan" stroke-width="20"/>
<circle cx="150" cy="510" r="10" fill="cyan"/>
<line x1="150" y1="570" x2="180" y2="570" stroke="cyan" stroke-width="20"/>
<line x1="150" y1="570" x2="150" y2="540" stroke="cyan" stroke-width="20"/>
<circle cx="150" cy="570" r="10" fill="cyan"/>
<line x1="150" y1="630" x2="120" y2="630" stroke="magenta" stroke-width="20"/>
<line x1="150" y1="630" x2="180" y2="630" stroke="magenta" stroke-width="20"/>
<circle cx="150" cy="630" r="10" fill="magenta"/>
<line x1="210" y1="30" x2="180" y2="30" stroke="green" stroke-width="20"/>
<circle cx="210" cy="30" r="20" fill="green"/>
<line x1="210" y1="90" x2="180" y2="90" stroke="red" stroke-width="20"/>
<line x1="210" y1="90" x2="240" y2="90" stroke="red" stroke-width="20"/>
<circle cx="210" cy="90" r="10" fill="red"/>
<line x1="210" y1="150" x2="180" y2="150" stroke="blue" stroke-width="20"/>
<line x1="210" y1="150" x2="240" y2="150" stroke="blue" stroke-width="20"/>
<circle cx="210" cy="150" r="10" fill="blue"/>
<line x1="210" y1="210" x2="210" y2="240" stroke="green" stroke-width="20"/>
<line x1="210" y1="210" x2="240" y2="210" stroke="green" stroke-width="20"/>
<circle cx="210" cy="210" r="10" fill="green"/>
<line x1="210" y1="270" x2="180" y2="270" stroke="green" stroke-width="20"/>
<line x1="210" y1="270" x2="210" y2="240" stroke="green" stroke-width="20"/>
<circle cx="210" cy="270" r="10" fill="green"/>
<line x1="210" y1="330" x2="180" y2="330" stroke="magenta" stroke-width="20"/>
<line x1="210" y1="330" x2="240" y2="330" stroke="magenta" stroke-width="20"/>
<circle cx="210" cy="330" r="10" fill="magenta"/>
<line x1="210" y1="390" x2="180" y2="390" stroke="yellow" stroke-width="20"/>
<line x1="210" y1="390" x2="240" y2="390" stroke="yellow" stroke-width="20"/>
<circle cx="210" cy="390" r="10" fill="yellow"/>
<line x1="210" y1="450" x2="180" y2="450" stroke="cyan" stroke-width="20"/>
<line x1="210" y1="450" x2="240" y2="450" stroke="cyan" stroke-width="20"/>
<circle cx="210" cy="450" r="10" fill="cyan"/>
<line x1="210" y1="510" x2="240" y2="510" stroke="orange" stroke-width="20"/>
<circle cx="210" cy="510" r="20" fill="orange"/>
<line x1="210" y1="570" x2="180" y2="570" stroke="cyan" stroke-width="20"/>
<circle cx="210" cy="570" r="20" fill="cyan"/>
<line x1="210" y1="630" x2="180" y2="630" stroke="magenta" stroke-width="20"/>
<line x1="210" y1="630" x2="240" y2="630" stroke="magenta" stroke-width="20"/>
<circle cx="210" cy="630" r="10" fill="magenta"/>
<line x1="270" y1="30" x2="270" y2="60" stroke="red" stroke-width="20"/>
<line x1="270" y1="30" x2="300" y2="30" stroke="red" stroke-width="20"/>
<circle cx="270" cy="30" r="10" fill="red"/>
<line x1="270" y1="90" x2="240" y2="90" stroke="red" stroke-width="20"/>
<line x1="270" y1="90" x2="270" y2="60" stroke="red" stroke-width="20"/>
<circle cx="270" cy="90" r="10" fill="red"/>
<line x1="270" y1="150" x2="240" y2="150" stroke="blue" stroke-width="20"/>
<line x1="270" y1="150" x2="300" y2="150" stroke="blue" stroke-width="20"/>
<circle cx="270" cy="150" r="10" fill="blue"/>
<line x1="270" y1="210" x2="240" y2="210" stroke="green" stroke-width="20"/>
<line x1="270" y1="210" x2="300" y2="210" stroke="green" stroke-width="20"/>
<circle cx="270" cy="210" r="10" fill="green"/>
<line x1="270" y1="270" x2="270" y2="300" stroke="magenta" stroke-width="20"/>
<circle cx="270" cy="270" r="20" fill="magenta"/>
<line x1="270" y1="330" x2="240" y2="330" stroke="magenta" stroke-width="20"/>
<line x1="270" y1="330" x2="270" y2="300" stroke="magenta" stroke-width="20"/>
<circle cx="270" cy="330" r="10" fill="magenta"/>
<line x1="270" y1="390" x2="240" y2="390" stroke="yellow" stroke-width="20"/>
<line x1="270" y1="390" x2="300" y2="390" stroke="yellow" stroke-width="20"/>
<circle cx="270" cy="390" r="10" fill="yellow"/>
<line x1="270" y1="450" x2="240" y2="450" stroke="cyan" stroke-width="20"/>
<line x1="270" y1="450" x2="300" y2="450" stroke="cyan" stroke-width="20"/>
<circle cx="270" cy="450" r="10" fill="cyan"/>
<line x1="270" y1="510" x2="240" y2="510" stroke="orange" stroke-width="20"/>
<line x1="270" y1="510" x2="270" y2="540" stroke="orange" stroke-width="20"/>
<circle cx="270" cy="510" r="10" fill="orange"/>
<line x1="270" y1="570" x2="300" y2="570" stroke="orange" stroke-width="20"/>
<line x1="270" y1="570" x2="270" y2="540" stroke="orange" stroke-width="20"/>
<circle cx="270" cy="570" r="10" fill="orange"/>
<line x1="270" y1="630" x2="240" y2="630" stroke="magenta" stroke-width="20"/>
<line x1="270" y1="630" x2="300" y2="630" stroke="magenta" stroke-width="20"/>
<circle cx="270" cy="630" r="10" fill="magenta"/>
<line x1="330" y1="30" x2="300" y2="30" stroke="red" stroke-width="20"/>
<line x1="330" y1="30" x2="360" y2="30" stroke="red" stroke-width="20"/>
<circle cx="330" cy="30" r="10" fill="red"/>
<line x1="330" y1="90" x2="330" y2="120" stroke="blue" stroke-width="20"/>
<line x1="330" y1="90" x2="360" y2="90" stroke="blue" stroke-width="20"/>
<circle cx="330" cy="90" r="10" fill="blue"/>
<line x1="330" y1="150" x2="300" y2="150" stroke="blue" stroke-width="20"/>
<line x1="330" y1="150" x2="330" y2="120" stroke="blue" stroke-width="20"/>
<circle cx="330" cy="150" r="10" fill="blue"/>
<line x1="330" y1="210" x2="300" y2="210" stroke="green" stroke-width="20"/>
<line x1="330" y1="210" x2="330" y2="240" stroke="green" stroke-width="20"/>
<circle cx="330" cy="210" r="10" fill="green"/>
<line x1="330" y1="270" x2="330" y2="300" stroke="green" stroke-width="20"/>
<line x1="330" y1="270" x2="330" y2="240" stroke="green" stroke-width="20"/>
<circle cx="330" cy="270" r="10" fill="green"/>
<line x1="330" y1="330" x2="330" y2="300" stroke="green" stroke-width="20"/>
<circle cx="330" cy="330" r="20" fill="green"/>
<line x1="330" y1="390" x2="300" y2="390" stroke="yellow" stroke-width="20"/>
<line x1="330" y1="390" x2="360" y2="390" stroke="yellow" stroke-width="20"/>
<circle cx="330" cy="390" r="10" fill="yellow"/>
<line x1="330" y1="450" x2="300" y2="450" stroke="cyan" stroke-width="20"/>
<line x1="330" y1="450" x2="360" y2="450" stroke="cyan" stroke-width="20"/>
<circle cx="330" cy="450" r="10" fill="cyan"/>
<line x1="330" y1="510" x2="360" y2="510" stroke="maroon" stroke-width="20"/>
<circle cx="330" cy="510" r="20" fill="maroon"/>
<line x1="330" y1="570" x2="300" y2="570" stroke="orange" stroke-width="20"/>
<line x1="330" y1="570" x2="360" y2="570" stroke="orange" stroke-width="20"/>
<circle cx="330" cy="570" r="10" fill="orange"/>
<line x1="330" y1="630" x2="300" y2="630" stroke="magenta" stroke-width="20"/>
<line x1="330" y1="630" x2="360" y2="630" stroke="magenta" stroke-width="20"/>
<circle cx="330" cy="630" r="10" fill="magenta"/>
<line x1="390" y1="30" x2="360" y2="30" stroke="red" stroke-width="20"/>
<line x1="390" y1="30" x2="420" y2="30" stroke="red" stroke-width="20"/>
<circle cx="390" cy="30" r="10" fill="red"/>
<line x1="390" y1="90" x2="360" y2="90" stroke="blue" stroke-width="20"/>
<line x1="390" y1="90" x2="420" y2="90" stroke="blue" stroke-width="20"/>
<circle cx="390" cy="90" r="10" fill="blue"/>
<line x1="390" y1="150" x2="390" y2="180" stroke="yellow" stroke-width="20"/>
<line x1="390" y1="150" x2="420" y2="150" stroke="yellow" stroke-width="20"/>
<circle cx="390" cy="150" r="10" fill="yellow"/>
<line x1="390" y1="210" x2="390" y2="240" stroke="yellow" stroke-width="20"/>
<line x1="390" y1="210" x2="390" y2="180" stroke="yellow" stroke-width="20"/>
<circle cx="390" cy="210" r="10" fill="yellow"/>
<line x1="390" y1="270" x2="390" y2="300" stroke="yellow" stroke-width="20"/>
<line x1="390" y1="270" x2="390" y2="240" stroke="yellow" stroke-width="20"/>
<circle cx="390" cy="270" r="10" fill="yellow"/>
<line x1="390" y1="330" x2="390" y2="360" stroke="yellow" stroke-width="20"/>
<line x1="390" y1="330" x2="390" y2="300" stroke="yellow" stroke-width="20"/>
<circle cx="390" cy="330" r="10" fill="yellow"/>
<line x1="390" y1="390" x2="360" y2="390" stroke="yellow" stroke-width="20"/>
<line x1="390" y1="390" x2="390" y2="360" stroke="yellow" stroke-width="20"/>
<circle cx="390" cy="390" r="10" fill="yellow"/>
<line x1="390" y1="450" x2="360" y2="450" stroke="cyan" stroke-width="20"/>
<line x1="390" y1="450" x2="420" y2="450" stroke="cyan" stroke-width="20"/>
<circle cx="390" cy="450" r="10" fill="cyan"/>
<line x1="390" y1="510" x2="360" y2="510" stroke="maroon" stroke-width="20"/>
<line x1="390" y1="510" x2="420" y2="510" stroke="maroon" stroke-width="20"/>
<circle cx="390" cy="510" r="10" fill="maroon"/>
<line x1="390" y1="570" x2="360" y2="570" stroke="orange" stroke-width="20"/>
<line x1="390" y1="570" x2="420" y2="570" stroke="orange" stroke-width="20"/>
<circle cx="390" cy="570" r="10" fill="orange"/>
<line x1="390" y1="630" x2="360" y2="630" stroke="magenta" stroke-width="20"/>
<line x1="390" y1="630" x2="420" y2="630" stroke="magenta" stroke-width="20"/>
<circle cx="390" cy="630" r="10" fill="magenta"/>
<line x1="450" y1="30" x2="420" y2="30" stroke="red" stroke-width="20"/>
<line x1="450" y1="30" x2="480" y2="30" stroke="red" stroke-width="20"/>
<circle cx="450" cy="30" r="10" fill="red"/>
<line x1="450" y1="90" x2="420" y2="90" stroke="blue" stroke-width="20"/>
<line x1="450" y1="90" x2="480" y2="90" stroke="blue" stroke-width="20"/>
<circle cx="450" cy="90" r="10" fill="blue"/>
<line x1="450" y1="150" x2="420" y2="150" stroke="yellow" stroke-width="20"/>
<circle cx="450" cy="150" r="20" fill="yellow"/>
<line x1="450" y1="210" x2="450" y2="240" stroke="cyan" stroke-width="20"/>
<line x1="450" y1="210" x2="480" y2="210" stroke="cyan" stroke-width="20"/>
<circle cx="450" cy="210" r="10" fill="cyan"/>
<line x1="450" y1="270" x2="450" y2="300" stroke="cyan" stroke-width="20"/>
<line x1="450" y1="270" x2="450" y2="240" stroke="cyan" stroke-width="20"/>
<circle cx="450" cy="270" r="10" fill="cyan"/>
<line x1="450" y1="330" x2="450" y2="360" stroke="cyan" stroke-width="20"/>
<line x1="450" y1="330" x2="450" y2="300" stroke="cyan" stroke-width="20"/>
<circle cx="450" cy="330" r="10" fill="cyan"/>
<line x1="450" y1="390" x2="450" y2="420" stroke="cyan" stroke-width="20"/>
<line x1="450" y1="390" x2="450" y2="360" stroke="cyan" stroke-width="20"/>
<circle cx="450" cy="390" r="10" fill="cyan"/>
<line x1="450" y1="450" x2="420" y2="450" stroke="cyan" stroke-width="20"/>
<line x1="450" y1="450" x2="450" y2="420" stroke="cyan" stroke-width="20"/>
<circle cx="450" cy="450" r="10" fill="cyan"/>
<line x1="450" y1="510" x2="420" y2="510" stroke="maroon" stroke-width="20"/>
<line x1="450" y1="510" x2="480" y2="510" stroke="maroon" stroke-width="20"/>
<circle cx="450" cy="510" r="10" fill="maroon"/>
<line x1="450" y1="570" x2="420" y2="570" stroke="orange" stroke-width="20"/>
<line x1="450" y1="570" x2="480" y2="570" stroke="orange" stroke-width="20"/>
<circle cx="450" cy="570" r="10" fill="orange"/>
<line x1="450" y1="630" x2="420" y2="630" stroke="magenta" stroke-width="20"/>
<line x1="450" y1="630" x2="480" y2="630" stroke="magenta" stroke-width="20"/>
<circle cx="450" cy="630" r="10" fill="magenta"/>
<line x1="510" y1="30" x2="480" y2="30" stroke="red" stroke-width="20"/>
<circle cx="510" cy="30" r="20" fill="red"/>
<line x1="510" y1="90" x2="480" y2="90" stroke="blue" stroke-width="20"/>
<line x1="510" y1="90" x2="540" y2="90" stroke="blue" stroke-width="20"/>
<circle cx="510" cy="90" r="10" fill="blue"/>
<line x1="510" y1="150" x2="510" y2="180" stroke="cyan" stroke-width="20"/>
<line x1="510" y1="150" x2="540" y2="150" stroke="cyan" stroke-width="20"/>
<circle cx="510" cy="150" r="10" fill="cyan"/>
<line x1="510" y1="210" x2="480" y2="210" stroke="cyan" stroke-width="20"/>
<line x1="510" y1="210" x2="510" y2="180" stroke="cyan" stroke-width="20"/>
<circle cx="510" cy="210" r="10" fill="cyan"/>
<line x1="510" y1="270" x2="510" y2="300" stroke="maroon" stroke-width="20"/>
<line x1="510" y1="270" x2="540" y2="270" stroke="maroon" stroke-width="20"/>
<circle cx="510" cy="270" r="10" fill="maroon"/>
<line x1="510" y1="330" x2="510" y2="360" stroke="maroon" stroke-width="20"/>
<line x1="510" y1="330" x2="510" y2="300" stroke="maroon" stroke-width="20"/>
<circle cx="510" cy="330" r="10" fill="maroon"/>
<line x1="510" y1="390" x2="510" y2="420" stroke="maroon" stroke-width="20"/>
<line x1="510" y1="390" x2="510" y2="360" stroke="maroon" stroke-width="20"/>
<circle cx="510" cy="390" r="10" fill="maroon"/>
<line x1="510" y1="450" x2="510" y2="480" stroke="maroon" stroke-width="20"/>
<line x1="510" y1="450" x2="510" y2="420" stroke="maroon" stroke-width="20"/>
<circle cx="510" cy="450" r="10" fill="maroon"/>
<line x1="510" y1="510" x2="480" y2="510" stroke="maroon" stroke-width="20"/>
<line x1="510" y1="510" x2="510" y2="480" stroke="maroon" stroke-width="20"/>
<circle cx="510" cy="510" r="10" fill="maroon"/>
<line x1="510" y1="570" x2="480" y2="570" stroke="orange" stroke-width="20"/>
<line x1="510" y1="570" x2="540" y2="570" stroke="orange" stroke-width="20"/>
<circle cx="510" cy="570" r="10" fill="orange"/>
<line x1="510" y1="630" x2="480" y2="630" stroke="magenta" stroke-width="20"/>
<line x1="510" y1="630" x2="540" y2="630" stroke="magenta" stroke-width="20"/>
<circle cx="510" cy="630" r="10" fill="magenta"/>
<line x1="570" y1="30" x2="600" y2="30" stroke="cyan" stroke-width="20"/>
<circle cx="570" cy="30" r="20" fill="cyan"/>
<line x1="570" y1="90" x2="540" y2="90" stroke="blue" stroke-width="20"/>
<circle cx="570" cy="90" r="20" fill="blue"/>
<line x1="570" y1="150" x2="540" y2="150" stroke="cyan" stroke-width="20"/>
<line x1="570" y1="150" x2="600" y2="150" stroke="cyan" stroke-width="20"/>
<circle cx="570" cy="150" r="10" fill="cyan"/>
<line x1="570" y1="210" x2="570" y2="240" stroke="maroon" stroke-width="20"/>
<circle cx="570" cy="210" r="20" fill="maroon"/>
<line x1="570" y1="270" x2="540" y2="270" stroke="maroon" stroke-width="20"/>
<line x1="570" y1="270" x2="570" y2="240" stroke="maroon" stroke-width="20"/>
<circle cx="570" cy="270" r="10" fill="maroon"/>
<line x1="570" y1="330" x2="570" y2="360" stroke="orange" stroke-width="20"/>
<circle cx="570" cy="330" r="20" fill="orange"/>
<line x1="570" y1="390" x2="570" y2="420" stroke="orange" stroke-width="20"/>
<line x1="570" y1="390" x2="570" y2="360" stroke="orange" stroke-width="20"/>
<circle cx="570" cy="390" r="10" fill="orange"/>
<line x1="570" y1="450" x2="570" y2="480" stroke="orange" stroke-width="20"/>
<line x1="570" y1="450" x2="570" y2="420" stroke="orange" stroke-width="20"/>
<circle cx="570" cy="450" r="10" fill="orange"/>
<line x1="570" y1="510" x2="570" y2="540" stroke="orange" stroke-width="20"/>
<line x1="570" y1="510" x2="570" y2="480" stroke="orange" stroke-width="20"/>
<circle cx="570" cy="510" r="10" fill="orange"/>
<line x1="570" y1="570" x2="540" y2="570" stroke="orange" stroke-width="20"/>
<line x1="570" y1="570" x2="570" y2="540" stroke="orange" stroke-width="20"/>
<circle cx="570" cy="570" r="10" fill="orange"/>
<line x1="570" y1="630" x2="540" y2="630" stroke="magenta" stroke-width="20"/>
<line x1="570" y1="630" x2="600" y2="630" stroke="magenta" stroke-width="20"/>
<circle cx="570" cy="630" r="10" fill="magenta"/>
<line x1="630" y1="30" x2="600" y2="30" stroke="cyan" stroke-width="20"/>
<line x1="630" y1="30" x2="630" y2="60" stroke="cyan" stroke-width="20"/>
<circle cx="630" cy="30" r="10" fill="cyan"/>
<line x1="630" y1="90" x2="630" y2="120" stroke="cyan" stroke-width="20"/>
<line x1="630" y1="90" x2="630" y2="60" stroke="cyan" stroke-width="20"/>
<circle cx="630" cy="90" r="10" fill="cyan"/>
<line x1="630" y1="150" x2="600" y2="150" stroke="cyan" stroke-width="20"/>
<line x1="630" y1="150" x2="630" y2="120" stroke="cyan" stroke-width="20"/>
<circle cx="630" cy="150" r="10" fill="cyan"/>
<line x1="630" y1="210" x2="630" y2="240" stroke="magenta" stroke-width="20"/>
<circle cx="630" cy="210" r="20" fill="magenta"/>
<line x1="630" y1="270" x2="630" y2="300" stroke="magenta" stroke-width="20"/>
<line x1="630" y1="270" x2="630" y2="240" stroke="magenta" stroke-width="20"/>
<circle cx="630" cy="270" r="10" fill="magenta"/>
<line x1="630" y1="330" x2="630" y2="360" stroke="magenta" stroke-width="20"/>
<line x1="630" y1="330" x2="630" y2="300" stroke="magenta" stroke-width="20"/>
<circle cx="630" cy="330" r="10" fill="magenta"/>
<line x1="630" y1="390" x2="630" y2="420" stroke="magenta" stroke-width="20"/>
<line x1="630" y1="390" x2="630" y2="360" stroke="magenta" stroke-width="20"/>
<circle cx="630" cy="390" r="10" fill="magenta"/>
<line x1="630" y1="450" x2="630" y2="480" stroke="magenta" stroke-width="20"/>
<line x1="630" y1="450" x2="630" y2="420" stroke="magenta" stroke-width="20"/>
<circle cx="630" cy="450" r="10" fill="magenta"/>
<line x1="630" y1="510" x2="630" y2="540" stroke="magenta" stroke-width="20"/>
<line x1="630" y1="510" x2="630" y2="480" stroke="magenta" stroke-width="20"/>
<circle cx="630" cy="510" r="10" fill="magenta"/>
<line x1="630" y1="570" x2="630" y2="600" stroke="magenta" stroke-width="20"/>
<line x1="630" y1="570" x2="630" y2="540" stroke="magenta" stroke-width="20"/>
<circle cx="630" cy="570" r="10" fill="magenta"/>
<line x1="630" y1="630" x2="600" y2="630" stroke="magenta" stroke-width="20"/>
<line x1="630" y1="630" x2="630" y2="600" stroke="magenta" stroke-width="20"/>
<circle cx="630" cy="630" r="10" fill="magenta"/>
</svg>
