<?xml version="1.0" encoding="UTF-8" ?>
<svg xmlns="http://www.w3.org/2000/svg" version="1.1">
<rect x="0" y="0" width="60" height="60" style="fill: #395539;"/>
<rect x="0" y="60" width="60" height="60" style="fill: #395539;"/>
<rect x="0" y="120" width="60" height="60" style="fill: #395539;"/>
<rect x="0" y="180" width="60" height="60" style="fill: #395539;"/>
<rect x="0" y="240" width="60" height="60" style="fill: #395539;"/>
<rect x="0" y="300" width="60" height="60" style="fill: #395539;"/>
<rect x="0" y="360" width="60" height="60" style="fill: #395539;"/>
<rect x="0" y="420" width="60" height="60" style="fill: #395539;"/>
<rect x="0" y="480" width="60" height="60" style="fill: #395539;"/>
<rect x="60" y="0" width="60" height="60" style="fill: #395539;"/>
<rect x="60" y="60" width="60" height="60" style="fill: #723939;"/>
<rect x="60" y="120" width="60" height="60" style="fill: #723939;"/>
<rect x="60" y="180" width="60" height="60" style="fill: #723939;"/>
<rect x="60" y="240" width="60" height="60" style="fill: #723939;"/>
<rect x="60" y="300" width="60" height="60" style="fill: #723939;"/>
<rect x="60" y="360" width="60" height="60" style="fill: #723939;"/>
<rect x="60" y="420" width="60" height="60" style="fill: #393972;"/>
<rect x="60" y="480" width="60" height="60" style="fill: #395539;"/>
<rect x="120" y="0" width="60" height="60" style="fill: #395539;"/>
<rect x="120" y="60" width="60" height="60" style="fill: #723939;"/>
<rect x="120" y="120" width="60" height="60" style="fill: #393972;"/>
<rect x="120" y="180" width="60" height="60" style="fill: #393972;"/>
<rect x="120" y="240" width="60" height="60" style="fill: #393972;"/>
<rect x="120" y="300" width="60" height="60" style="fill: #393972;"/>
<rect x="120" y="360" width="60" height="60" style="fill: #393972;"/>
<rect x="120" y="420" width="60" height="60" style="fill: #393972;"/>
<rect x="120" y="480" width="60" height="60" style="fill: #395539;"/>
<rect x="180" y="0" width="60" height="60" style="fill: #395539;"/>
<rect x="180" y="60" width="60" height="60" style="fill: #723939;"/>
<rect x="180" y="120" width="60" height="60" style="fill: #393972;"/>
<rect x="180" y="180" width="60" height="60" style="fill: #395539;"/>
<rect x="180" y="240" width="60" height="60" style="fill: #395539;"/>
<rect x="180" y="300" width="60" height="60" style="fill: #395539;"/>
<rect x="180" y="360" width="60" height="60" style="fill: #395539;"/>
<rect x="180" y="420" width="60" height="60" style="fill: #395539;"/>
<rect x="180" y="480" width="60" height="60" style="fill: #395539;"/>
<rect x="240" y="0" width="60" height="60" style="fill: #395539;"/>
<rect x="240" y="60" width="60" height="60" style="fill: #723939;"/>
<rect x="240" y="120" width="60" height="60" style="fill: #393972;"/>
<rect x="240" y="180" width="60" height="60" style="fill: #395539;"/>
<rect x="240" y="240" width="60" height="60" style="fill: #6e6e39;"/>
<rect x="240" y="300" width="60" height="60" style="fill: #6e6e39;"/>
<rect x="240" y="360" width="60" height="60" style="fill: #6e6e39;"/>
<rect x="240" y="420" width="60" height="60" style="fill: #6e6e39;"/>
<rect x="240" y="480" width="60" height="60" style="fill: #6e6e39;"/>
<rect x="300" y="0" width="60" height="60" style="fill: #395539;"/>
<rect x="300" y="60" width="60" height="60" style="fill: #723939;"/>
<rect x="300" y="120" width="60" height="60" style="fill: #393972;"/>
<rect x="300" y="180" width="60" height="60" style="fill: #395539;"/>
<rect x="300" y="240" width="60" height="60" style="fill: #395539;"/>
<rect x="300" y="300" width="60" height="60" style="fill: #395539;"/>
<rect x="300" y="360" width="60" height="60" style="fill: #395539;"/>
<rect x="300" y="420" width="60" height="60" style="fill: #395539;"/>
<rect x="300" y="480" width="60" height="60" style="fill: #6e6e39;"/>
<rect x="360" y="0" width="60" height="60" style="fill: #395539;"/>
<rect x="360" y="60" width="60" height="60" style="fill: #723939;"/>
<rect x="360" y="120" width="60" height="60" style="fill: #393972;"/>
<rect x="360" y="180" width="60" height="60" style="fill: #393972;"/>
<rect x="360" y="240" width="60" height="60" style="fill: #393972;"/>
<rect x="360" y="300" width="60" height="60" style="fill: #393972;"/>
<rect x="360" y="360" width="60" height="60" style="fill: #393972;"/>
<rect x="360" y="420" width="60" height="60" style="fill: #395539;"/>
<rect x="360" y="480" width="60" height="60" style="fill: #6e6e39;"/>
<rect x="420" y="0" width="60" height="60" style="fill: #395539;"/>
<rect x="420" y="60" width="60" height="60" style="fill: #723939;"/>
<rect x="420" y="120" width="60" height="60" style="fill: #723939;"/>
<rect x="420" y="180" width="60" height="60" style="fill: #723939;"/>
<rect x="420" y="240" width="60" height="60" style="fill: #723939;"/>
<rect x="420" y="300" width="60" height="60" style="fill: #723939;"/>
<rect x="420" y="360" width="60" height="60" style="fill: #6e6e39;"/>
<rect x="420" y="420" width="60" height="60" style="fill: #395539;"/>
<rect x="420" y="480" width="60" height="60" style="fill: #6e6e39;"/>
<rect x="480" y="0" width="60" height="60" style="fill: #395539;"/>
<rect x="480" y="60" width="60" height="60" style="fill: #395539;"/>
<rect x="480" y="120" width="60" height="60" style="fill: #395539;"/>
<rect x="480" y="180" width="60" height="60" style="fill: #395539;"/>
<rect x="480" y="240" width="60" height="60" style="fill: #395539;"/>
<rect x="480" y="300" width="60" height="60" style="fill: #395539;"/>
<rect x="480" y="360" width="60" height="60" style="fill: #6e6e39;"/>
<rect x="480" y="420" width="60" height="60" style="fill: #6e6e39;"/>
<rect x="480" y="480" width="60" height="60" style="fill: #6e6e39;"/>
<line x1="30" y1="30" x2="30" y2="60" stroke="green" stroke-width="20"/>
<line x1="30" y1="30" x2="60" y2="30" stroke="green" stroke-width="20"/>
<circle cx="30" cy="30" r="10" fill="green"/>
<line x1="30" y1="90" x2="30" y2="120" stroke="green" stroke-width="20"/>
<line x1="30" y1="90" x2="30" y2="60" stroke="green" stroke-width="20"/>
<circle cx="30" cy="90" r="10" fill="green"/>
<line x1="30" y1="150" x2="30" y2="180" stroke="green" stroke-width="20"/>
<line x1="30" y1="150" x2="30" y2="120" stroke="green" stroke-width="20"/>
<circle cx="30" cy="150" r="10" fill="green"/>
<line x1="30" y1="210" x2="30" y2="240" stroke="green" stroke-width="20"/>
<line x1="30" y1="210" x2="30" y2="180" stroke="green" stroke-width="20"/>
<circle cx="30" cy="210" r="10" fill="green"/>
<line x1="30" y1="270" x2="30" y2="300" stroke="green" stroke-width="20"/>
<line x1="30" y1="270" x2="30" y2="240" stroke="green" stroke-width="20"/>
<circle cx="30" cy="270" r="10" fill="green"/>
<line x1="30" y1="330" x2="30" y2="360" stroke="green" stroke-width="20"/>
<line x1="30" y1="330" x2="30" y2="300" stroke="green" stroke-width="20"/>
<circle cx="30" cy="330" r="10" fill="green"/>
<line x1="30" y1="390" x2="30" y2="420" stroke="green" stroke-width="20"/>
<line x1="30" y1="390" x2="30" y2="360" stroke="green" stroke-width="20"/>
<circle cx="30" cy="390" r="10" fill="green"/>
<line x1="30" y1="450" x2="30" y2="480" stroke="green" stroke-width="20"/>
<line x1="30" y1="450" x2="30" y2="420" stroke="green" stroke-width="20"/>
<circle cx="30" cy="450" r="10" fill="green"/>
<line x1="30" y1="510" x2="60" y2="510" stroke="green" stroke-width="20"/>
<line x1="30" y1="510" x2="30" y2="480" stroke="green" stroke-width="20"/>
<circle cx="30" cy="510" r="10" fill="green"/>
<line x1="90" y1="30" x2="60" y2="30" stroke="green" stroke-width="20"/>
<line x1="90" y1="30" x2="120" y2="30" stroke="green" stroke-width="20"/>
<circle cx="90" cy="30" r="10" fill="green"/>
<line x1="90" y1="90" x2="90" y2="120" stroke="red" stroke-width="20"/>
<line x1="90" y1="90" x2="120" y2="90" stroke="red" stroke-width="20"/>
<circle cx="90" cy="90" r="10" fill="red"/>
<line x1="90" y1="150" x2="90" y2="180" stroke="red" stroke-width="20"/>
<line x1="90" y1="150" x2="90" y2="120" stroke="red" stroke-width="20"/>
<circle cx="90" cy="150" r="10" fill="red"/>
<line x1="90" y1="210" x2="90" y2="240" stroke="red" stroke-width="20"/>
<line x1="90" y1="210" x2="90" y2="180" stroke="red" stroke-width="20"/>
<circle cx="90" cy="210" r="10" fill="red"/>
<line x1="90" y1="270" x2="90" y2="300" stroke="red" stroke-width="20"/>
<line x1="90" y1="270" x2="90" y2="240" stroke="red" stroke-width="20"/>
<circle cx="90" cy="270" r="10" fill="red"/>
<line x1="90" y1="330" x2="90" y2="360" stroke="red" stroke-width="20"/>
<line x1="90" y1="330" x2="90" y2="300" stroke="red" stroke-width="20"/>
<circle cx="90" cy="330" r="10" fill="red"/>
<line x1="90" y1="390" x2="90" y2="360" stroke="red" stroke-width="20"/>
<circle cx="90" cy="390" r="20" fill="red"/>
<line x1="90" y1="450" x2="120" y2="450" stroke="blue" stroke-width="20"/>
<circle cx="90" cy="450" r="20" fill="blue"/>
<line x1="90" y1="510" x2="60" y2="510" stroke="green" stroke-width="20"/>
<line x1="90" y1="510" x2="120" y2="510" stroke="green" stroke-width="20"/>
<circle cx="90" cy="510" r="10" fill="green"/>
<line x1="150" y1="30" x2="120" y2="30" stroke="green" stroke-width="20"/>
<line x1="150" y1="30" x2="180" y2="30" stroke="green" stroke-width="20"/>
<circle cx="150" cy="30" r="10" fill="green"/>
<line x1="150" y1="90" x2="120" y2="90" stroke="red" stroke-width="20"/>
<line x1="150" y1="90" x2="180" y2="90" stroke="red" stroke-width="20"/>
<circle cx="150" cy="90" r="10" fill="red"/>
<line x1="150" y1="150" x2="150" y2="180" stroke="blue" stroke-width="20"/>
<line x1="150" y1="150" x2="180" y2="150" stroke="blue" stroke-width="20"/>
<circle cx="150" cy="150" r="10" fill="blue"/>
<line x1="150" y1="210" x2="150" y2="240" stroke="blue" stroke-width="20"/>
<line x1="150" y1="210" x2="150" y2="180" stroke="blue" stroke-width="20"/>
<circle cx="150" cy="210" r="10" fill="blue"/>
<line x1="150" y1="270" x2="150" y2="300" stroke="blue" stroke-width="20"/>
<line x1="150" y1="270" x2="150" y2="240" stroke="blue" stroke-width="20"/>
<circle cx="150" cy="270" r="10" fill="blue"/>
<line x1="150" y1="330" x2="150" y2="360" stroke="blue" stroke-width="20"/>
<line x1="150" y1="330" x2="150" y2="300" stroke="blue" stroke-width="20"/>
<circle cx="150" cy="330" r="10" fill="blue"/>
<line x1="150" y1="390" x2="150" y2="420" stroke="blue" stroke-width="20"/>
<line x1="150" y1="390" x2="150" y2="360" stroke="blue" stroke-width="20"/>
<circle cx="150" cy="390" r="10" fill="blue"/>
<line x1="150" y1="450" x2="120" y2="450" stroke="blue" stroke-width="20"/>
<line x1="150" y1="450" x2="150" y2="420" stroke="blue" stroke-width="20"/>
<circle cx="150" cy="450" r="10" fill="blue"/>
<line x1="150" y1="510" x2="120" y2="510" stroke="green" stroke-width="20"/>
<line x1="150" y1="510" x2="180" y2="510" stroke="green" stroke-width="20"/>
<circle cx="150" cy="510" r="10" fill="green"/>
<line x1="210" y1="30" x2="180" y2="30" stroke="green" stroke-width="20"/>
<line x1="210" y1="30" x2="240" y2="30" stroke="green" stroke-width="20"/>
<circle cx="210" cy="30" r="10" fill="green"/>
<line x1="210" y1="90" x2="180" y2="90" stroke="red" stroke-width="20"/>
<line x1="210" y1="90" x2="240" y2="90" stroke="red" stroke-width="20"/>
<circle cx="210" cy="90" r="10" fill="red"/>
<line x1="210" y1="150" x2="180" y2="150" stroke="blue" stroke-width="20"/>
<line x1="210" y1="150" x2="240" y2="150" stroke="blue" stroke-width="20"/>
<circle cx="210" cy="150" r="10" fill="blue"/>
<line x1="210" y1="210" x2="210" y2="240" stroke="green" stroke-width="20"/>
<line x1="210" y1="210" x2="240" y2="210" stroke="green" stroke-width="20"/>
<circle cx="210" cy="210" r="10" fill="green"/>
<line x1="210" y1="270" x2="210" y2="300" stroke="green" stroke-width="20"/>
<line x1="210" y1="270" x2="210" y2="240" stroke="green" stroke-width="20"/>
<circle cx="210" cy="270" r="10" fill="green"/>
<line x1="210" y1="330" x2="210" y2="360" stroke="green" stroke-width="20"/>
<line x1="210" y1="330" x2="210" y2="300" stroke="green" stroke-width="20"/>
<circle cx="210" cy="330" r="10" fill="green"/>
<line x1="210" y1="390" x2="210" y2="420" stroke="green" stroke-width="20"/>
<line x1="210" y1="390" x2="210" y2="360" stroke="green" stroke-width="20"/>
<circle cx="210" cy="390" r="10" fill="green"/>
<line x1="210" y1="450" x2="210" y2="480" stroke="green" stroke-width="20"/>
<line x1="210" y1="450" x2="210" y2="420" stroke="green" stroke-width="20"/>
<circle cx="210" cy="450" r="10" fill="green"/>
<line x1="210" y1="510" x2="180" y2="510" stroke="green" stroke-width="20"/>
<line x1="210" y1="510" x2="210" y2="480" stroke="green" stroke-width="20"/>
<circle cx="210" cy="510" r="10" fill="green"/>
<line x1="270" y1="30" x2="240" y2="30" stroke="green" stroke-width="20"/>
<line x1="270" y1="30" x2="300" y2="30" stroke="green" stroke-width="20"/>
<circle cx="270" cy="30" r="10" fill="green"/>
<line x1="270" y1="90" x2="240" y2="90" stroke="red" stroke-width="20"/>
<line x1="270" y1="90" x2="300" y2="90" stroke="red" stroke-width="20"/>
<circle cx="270" cy="90" r="10" fill="red"/>
<line x1="270" y1="150" x2="240" y2="150" stroke="blue" stroke-width="20"/>
<line x1="270" y1="150" x2="300" y2="150" stroke="blue" stroke-width="20"/>
<circle cx="270" cy="150" r="10" fill="blue"/>
<line x1="270" y1="210" x2="240" y2="210" stroke="green" stroke-width="20"/>
<line x1="270" y1="210" x2="300" y2="210" stroke="green" stroke-width="20"/>
<circle cx="270" cy="210" r="10" fill="green"/>
<line x1="270" y1="270" x2="270" y2="300" stroke="yellow" stroke-width="20"/>
<circle cx="270" cy="270" r="20" fill="yellow"/>
<line x1="270" y1="330" x2="270" y2="360" stroke="yellow" stroke-width="20"/>
<line x1="270" y1="330" x2="270" y2="300" stroke="yellow" stroke-width="20"/>
<circle cx="270" cy="330" r="10" fill="yellow"/>
<line x1="270" y1="390" x2="270" y2="420" stroke="yellow" stroke-width="20"/>
<line x1="270" y1="390" x2="270" y2="360" stroke="yellow" stroke-width="20"/>
<circle cx="270" cy="390" r="10" fill="yellow"/>
<line x1="270" y1="450" x2="270" y2="480" stroke="yellow" stroke-width="20"/>
<line x1="270" y1="450" x2="270" y2="420" stroke="yellow" stroke-width="20"/>
<circle cx="270" cy="450" r="10" fill="yellow"/>
<line x1="270" y1="510" x2="300" y2="510" stroke="yellow" stroke-width="20"/>
<line x1="270" y1="510" x2="270" y2="480" stroke="yellow" stroke-width="20"/>
<circle cx="270" cy="510" r="10" fill="yellow"/>
<line x1="330" y1="30" x2="300" y2="30" stroke="green" stroke-width="20"/>
<line x1="330" y1="30" x2="360" y2="30" stroke="green" stroke-width="20"/>
<circle cx="330" cy="30" r="10" fill="green"/>
<line x1="330" y1="90" x2="300" y2="90" stroke="red" stroke-width="20"/>
<line x1="330" y1="90" x2="360" y2="90" stroke="red" stroke-width="20"/>
<circle cx="330" cy="90" r="10" fill="red"/>
<line x1="330" y1="150" x2="300" y2="150" stroke="blue" stroke-width="20"/>
<line x1="330" y1="150" x2="360" y2="150" stroke="blue" stroke-width="20"/>
<circle cx="330" cy="150" r="10" fill="blue"/>
<line x1="330" y1="210" x2="300" y2="210" stroke="green" stroke-width="20"/>
<line x1="330" y1="210" x2="330" y2="240" stroke="green" stroke-width="20"/>
<circle cx="330" cy="210" r="10" fill="green"/>
<line x1="330" y1="270" x2="330" y2="300" stroke="green" stroke-width="20"/>
<line x1="330" y1="270" x2="330" y2="240" stroke="green" stroke-width="20"/>
<circle cx="330" cy="270" r="10" fill="green"/>
<line x1="330" y1="330" x2="330" y2="360" stroke="green" stroke-width="20"/>
<line x1="330" y1="330" x2="330" y2="300" stroke="green" stroke-width="20"/>
<circle cx="330" cy="330" r="10" fill="green"/>
<line x1="330" y1="390" x2="330" y2="420" stroke="green" stroke-width="20"/>
<line x1="330" y1="390" x2="330" y2="360" stroke="green" stroke-width="20"/>
<circle cx="330" cy="390" r="10" fill="green"/>
<line x1="330" y1="450" x2="360" y2="450" stroke="green" stroke-width="20"/>
<line x1="330" y1="450" x2="330" y2="420" stroke="green" stroke-width="20"/>
<circle cx="330" cy="450" r="10" fill="green"/>
<line x1="330" y1="510" x2="300" y2="510" stroke="yellow" stroke-width="20"/>
<line x1="330" y1="510" x2="360" y2="510" stroke="yellow" stroke-width="20"/>
<circle cx="330" cy="510" r="10" fill="yellow"/>
<line x1="390" y1="30" x2="360" y2="30" stroke="green" stroke-width="20"/>
<line x1="390" y1="30" x2="420" y2="30" stroke="green" stroke-width="20"/>
<circle cx="390" cy="30" r="10" fill="green"/>
<line x1="390" y1="90" x2="360" y2="90" stroke="red" stroke-width="20"/>
<line x1="390" y1="90" x2="420" y2="90" stroke="red" stroke-width="20"/>
<circle cx="390" cy="90" r="10" fill="red"/>
<line x1="390" y1="150" x2="360" y2="150" stroke="blue" stroke-width="20"/>
<line x1="390" y1="150" x2="390" y2="180" stroke="blue" stroke-width="20"/>
<circle cx="390" cy="150" r="10" fill="blue"/>
<line x1="390" y1="210" x2="390" y2="240" stroke="blue" stroke-width="20"/>
<line x1="390" y1="210" x2="390" y2="180" stroke="blue" stroke-width="20"/>
<circle cx="390" cy="210" r="10" fill="blue"/>
<line x1="390" y1="270" x2="390" y2="300" stroke="blue" stroke-width="20"/>
<line x1="390" y1="270" x2="390" y2="240" stroke="blue" stroke-width="20"/>
<circle cx="390" cy="270" r="10" fill="blue"/>
<line x1="390" y1="330" x2="390" y2="360" stroke="blue" stroke-width="20"/>
<line x1="390" y1="330" x2="390" y2="300" stroke="blue" stroke-width="20"/>
<circle cx="390" cy="330" r="10" fill="blue"/>
<line x1="390" y1="390" x2="390" y2="360" stroke="blue" stroke-width="20"/>
<circle cx="390" cy="390" r="20" fill="blue"/>
<line x1="390" y1="450" x2="360" y2="450" stroke="green" stroke-width="20"/>
<line x1="390" y1="450" x2="420" y2="450" stroke="green" stroke-width="20"/>
<circle cx="390" cy="450" r="10" fill="green"/>
<line x1="390" y1="510" x2="360" y2="510" stroke="yellow" stroke-width="20"/>
<line x1="390" y1="510" x2="420" y2="510" stroke="yellow" stroke-width="20"/>
<circle cx="390" cy="510" r="10" fill="yellow"/>
<line x1="450" y1="30" x2="420" y2="30" stroke="green" stroke-width="20"/>
<line x1="450" y1="30" x2="480" y2="30" stroke="green" stroke-width="20"/>
<circle cx="450" cy="30" r="10" fill="green"/>
<line x1="450" y1="90" x2="420" y2="90" stroke="red" stroke-width="20"/>
<line x1="450" y1="90" x2="450" y2="120" stroke="red" stroke-width="20"/>
<circle cx="450" cy="90" r="10" fill="red"/>
<line x1="450" y1="150" x2="450" y2="180" stroke="red" stroke-width="20"/>
<line x1="450" y1="150" x2="450" y2="120" stroke="red" stroke-width="20"/>
<circle cx="450" cy="150" r="10" fill="red"/>
<line x1="450" y1="210" x2="450" y2="240" stroke="red" stroke-width="20"/>
<line x1="450" y1="210" x2="450" y2="180" stroke="red" stroke-width="20"/>
<circle cx="450" cy="210" r="10" fill="red"/>
<line x1="450" y1="270" x2="450" y2="300" stroke="red" stroke-width="20"/>
<line x1="450" y1="270" x2="450" y2="240" stroke="red" stroke-width="20"/>
<circle cx="450" cy="270" r="10" fill="red"/>
<line x1="450" y1="330" x2="450" y2="300" stroke="red" stroke-width="20"/>
<circle cx="450" cy="330" r="20" fill="red"/>
<line x1="450" y1="390" x2="480" y2="390" stroke="yellow" stroke-width="20"/>
<circle cx="450" cy="390" r="20" fill="yellow"/>
<line x1="450" y1="450" x2="420" y2="450" stroke="green" stroke-width="20"/>
<circle cx="450" cy="450" r="20" fill="green"/>
<line x1="450" y1="510" x2="420" y2="510" stroke="yellow" stroke-width="20"/>
<line x1="450" y1="510" x2="480" y2="510" stroke="yellow" stroke-width="20"/>
<circle cx="450" cy="510" r="10" fill="yellow"/>
<line x1="510" y1="30" x2="480" y2="30" stroke="green" stroke-width="20"/>
<line x1="510" y1="30" x2="510" y2="60" stroke="green" stroke-width="20"/>
<circle cx="510" cy="30" r="10" fill="green"/>
<line x1="510" y1="90" x2="510" y2="120" stroke="green" stroke-width="20"/>
<line x1="510" y1="90" x2="510" y2="60" stroke="green" stroke-width="20"/>
<circle cx="510" cy="90" r="10" fill="green"/>
<line x1="510" y1="150" x2="510" y2="180" stroke="green" stroke-width="20"/>
<line x1="510" y1="150" x2="510" y2="120" stroke="green" stroke-width="20"/>
<circle cx="510" cy="150" r="10" fill="green"/>
<line x1="510" y1="210" x2="510" y2="240" stroke="green" stroke-width="20"/>
<line x1="510" y1="210" x2="510" y2="180" stroke="green" stroke-width="20"/>
<circle cx="510" cy="210" r="10" fill="green"/>
<line x1="510" y1="270" x2="510" y2="300" stroke="green" stroke-width="20"/>
<line x1="510" y1="270" x2="510" y2="240" stroke="green" stroke-width="20"/>
<circle cx="510" cy="270" r="10" fill="green"/>
<line x1="510" y1="330" x2="510" y2="300" stroke="green" stroke-width="20"/>
<circle cx="510" cy="330" r="20" fill="green"/>
<line x1="510" y1="390" x2="480" y2="390" stroke="yellow" stroke-width="20"/>
<line x1="510" y1="390" x2="510" y2="420" stroke="yellow" stroke-width="20"/>
<circle cx="510" cy="390" r="10" fill="yellow"/>
<line x1="510" y1="450" x2="510" y2="480" stroke="yellow" stroke-width="20"/>
<line x1="510" y1="450" x2="510" y2="420" stroke="yellow" stroke-width="20"/>
<circle cx="510" cy="450" r="10" fill="yellow"/>
<line x1="510" y1="510" x2="480" y2="510" stroke="yellow" stroke-width="20"/>
<line x1="510" y1="510" x2="510" y2="480" stroke="yellow" stroke-width="20"/>
<circle cx="510" cy="510" r="10" fill="yellow"/>
</svg>
